<mxfile host="Electron" modified="2023-04-26T15:10:40.037Z" agent="Mozilla/5.0 (Macintosh; Intel Mac OS X 10_15_7) AppleWebKit/537.36 (KHTML, like Gecko) draw.io/21.2.1 Chrome/112.0.5615.87 Electron/24.1.2 Safari/537.36" etag="_39oBHpd5_MCsbSjMcfo" version="21.2.1" type="device">
  <diagram name="페이지-1" id="WjTWZu_wgfsH3Yp1EPEO">
    <mxGraphModel dx="1485" dy="812" grid="1" gridSize="10" guides="1" tooltips="1" connect="1" arrows="1" fold="1" page="1" pageScale="1" pageWidth="400" pageHeight="200" math="0" shadow="0">
      <root>
        <mxCell id="0" />
        <mxCell id="1" parent="0" />
        <mxCell id="LTw5yQqBx48sPHNNN6xt-4" value="Image" style="text;html=1;strokeColor=none;fillColor=none;align=center;verticalAlign=middle;whiteSpace=wrap;rounded=0;" parent="1" vertex="1">
          <mxGeometry x="39.91" y="370" width="40" as="geometry" />
        </mxCell>
        <mxCell id="LTw5yQqBx48sPHNNN6xt-5" value="Encoder" style="text;html=1;strokeColor=none;fillColor=none;align=center;verticalAlign=middle;whiteSpace=wrap;rounded=0;" parent="1" vertex="1">
          <mxGeometry x="140" y="370" width="40" as="geometry" />
        </mxCell>
        <mxCell id="AjTzXF5Oelp-aFMQVaQH-9" value="" style="shape=cube;whiteSpace=wrap;html=1;boundedLbl=1;backgroundOutline=1;darkOpacity=0;darkOpacity2=0;size=40;flipH=1;fillColor=#ffe6cc;strokeColor=#d79b00;" parent="1" vertex="1">
          <mxGeometry x="100" y="210" width="120" height="140" as="geometry" />
        </mxCell>
        <mxCell id="AjTzXF5Oelp-aFMQVaQH-11" value="" style="shape=parallelogram;perimeter=parallelogramPerimeter;whiteSpace=wrap;html=1;fixedSize=1;rotation=-90;size=40;flipH=1;fillStyle=solid;" parent="1" vertex="1">
          <mxGeometry x="-10" y="260" width="140" height="40" as="geometry" />
        </mxCell>
        <mxCell id="AjTzXF5Oelp-aFMQVaQH-12" value="" style="shape=cube;whiteSpace=wrap;html=1;boundedLbl=1;backgroundOutline=1;darkOpacity=0;darkOpacity2=0;size=40;flipH=1;fillColor=#ffe6cc;strokeColor=#d79b00;" parent="1" vertex="1">
          <mxGeometry x="230" y="210" width="50" height="140" as="geometry" />
        </mxCell>
        <mxCell id="AjTzXF5Oelp-aFMQVaQH-14" value="Features" style="text;html=1;strokeColor=none;fillColor=none;align=center;verticalAlign=middle;whiteSpace=wrap;rounded=0;" parent="1" vertex="1">
          <mxGeometry x="235" y="370" width="40" as="geometry" />
        </mxCell>
        <mxCell id="AjTzXF5Oelp-aFMQVaQH-16" value="x_t+1" style="text;html=1;strokeColor=none;fillColor=none;align=center;verticalAlign=middle;whiteSpace=wrap;rounded=0;" parent="1" vertex="1">
          <mxGeometry x="195" y="470" width="85" as="geometry" />
        </mxCell>
        <mxCell id="AjTzXF5Oelp-aFMQVaQH-24" value="" style="endArrow=classic;html=1;rounded=0;exitX=0.5;exitY=0.5;exitDx=0;exitDy=0;exitPerimeter=0;" parent="1" source="AjTzXF5Oelp-aFMQVaQH-11" edge="1">
          <mxGeometry width="50" height="50" relative="1" as="geometry">
            <mxPoint x="220" y="420" as="sourcePoint" />
            <mxPoint x="100" y="280" as="targetPoint" />
          </mxGeometry>
        </mxCell>
        <mxCell id="AjTzXF5Oelp-aFMQVaQH-26" value="" style="endArrow=classic;html=1;rounded=0;exitX=0.5;exitY=0.5;exitDx=0;exitDy=0;exitPerimeter=0;" parent="1" edge="1">
          <mxGeometry width="50" height="50" relative="1" as="geometry">
            <mxPoint x="205.63" y="279.71" as="sourcePoint" />
            <mxPoint x="230" y="280" as="targetPoint" />
          </mxGeometry>
        </mxCell>
        <mxCell id="G3NelD-k7GDp5YI_SeNo-103" style="edgeStyle=orthogonalEdgeStyle;rounded=0;orthogonalLoop=1;jettySize=auto;html=1;" edge="1" parent="1" source="AjTzXF5Oelp-aFMQVaQH-34">
          <mxGeometry relative="1" as="geometry">
            <mxPoint x="200" y="425" as="targetPoint" />
          </mxGeometry>
        </mxCell>
        <mxCell id="AjTzXF5Oelp-aFMQVaQH-34" value="" style="shape=cube;whiteSpace=wrap;html=1;boundedLbl=1;backgroundOutline=1;darkOpacity=0;darkOpacity2=0;size=10;flipH=1;fillColor=#f5f5f5;strokeColor=#666666;fontColor=#333333;" parent="1" vertex="1">
          <mxGeometry x="117.5" y="410" width="70" height="30" as="geometry" />
        </mxCell>
        <mxCell id="AjTzXF5Oelp-aFMQVaQH-37" value="x_T" style="text;html=1;strokeColor=none;fillColor=none;align=center;verticalAlign=middle;whiteSpace=wrap;rounded=0;" parent="1" vertex="1">
          <mxGeometry x="110" y="470" width="85" as="geometry" />
        </mxCell>
        <mxCell id="AjTzXF5Oelp-aFMQVaQH-41" value="x_0" style="text;html=1;strokeColor=none;fillColor=none;align=center;verticalAlign=middle;whiteSpace=wrap;rounded=0;" parent="1" vertex="1">
          <mxGeometry x="200" y="640" width="85" as="geometry" />
        </mxCell>
        <mxCell id="G3NelD-k7GDp5YI_SeNo-3" value="x_t" style="text;html=1;strokeColor=none;fillColor=none;align=center;verticalAlign=middle;whiteSpace=wrap;rounded=0;" vertex="1" parent="1">
          <mxGeometry x="319.37" y="640" width="85" as="geometry" />
        </mxCell>
        <mxCell id="G3NelD-k7GDp5YI_SeNo-35" value="" style="shape=cube;whiteSpace=wrap;html=1;boundedLbl=1;backgroundOutline=1;darkOpacity=0;darkOpacity2=0;size=40;flipH=1;fillColor=#dae8fc;strokeColor=#6c8ebf;" vertex="1" parent="1">
          <mxGeometry x="320" y="210" width="150" height="140" as="geometry" />
        </mxCell>
        <mxCell id="G3NelD-k7GDp5YI_SeNo-36" value="RCNN_Head" style="text;html=1;strokeColor=none;fillColor=none;align=center;verticalAlign=middle;whiteSpace=wrap;rounded=0;" vertex="1" parent="1">
          <mxGeometry x="375" y="370" width="40" as="geometry" />
        </mxCell>
        <mxCell id="G3NelD-k7GDp5YI_SeNo-90" value="" style="group" vertex="1" connectable="0" parent="1">
          <mxGeometry x="320" y="520" width="80" height="80" as="geometry" />
        </mxCell>
        <mxCell id="G3NelD-k7GDp5YI_SeNo-84" value="" style="rounded=0;whiteSpace=wrap;html=1;" vertex="1" parent="G3NelD-k7GDp5YI_SeNo-90">
          <mxGeometry width="80" height="80" as="geometry" />
        </mxCell>
        <mxCell id="G3NelD-k7GDp5YI_SeNo-86" value="" style="rounded=0;whiteSpace=wrap;html=1;strokeWidth=0.5;fillColor=none;strokeColor=#6c8ebf;" vertex="1" parent="G3NelD-k7GDp5YI_SeNo-90">
          <mxGeometry y="40" width="20" height="40" as="geometry" />
        </mxCell>
        <mxCell id="G3NelD-k7GDp5YI_SeNo-87" value="" style="rounded=0;whiteSpace=wrap;html=1;strokeWidth=0.5;fillColor=none;strokeColor=#d79b00;" vertex="1" parent="G3NelD-k7GDp5YI_SeNo-90">
          <mxGeometry x="40" y="40" width="40" height="40" as="geometry" />
        </mxCell>
        <mxCell id="G3NelD-k7GDp5YI_SeNo-88" value="" style="rounded=0;whiteSpace=wrap;html=1;strokeWidth=0.5;fillColor=none;strokeColor=#d6b656;" vertex="1" parent="G3NelD-k7GDp5YI_SeNo-90">
          <mxGeometry x="50" y="20" width="20" height="40" as="geometry" />
        </mxCell>
        <mxCell id="G3NelD-k7GDp5YI_SeNo-89" value="" style="rounded=0;whiteSpace=wrap;html=1;strokeWidth=0.5;fillColor=none;strokeColor=#82b366;" vertex="1" parent="G3NelD-k7GDp5YI_SeNo-90">
          <mxGeometry x="22.5" width="37.5" height="20" as="geometry" />
        </mxCell>
        <mxCell id="G3NelD-k7GDp5YI_SeNo-96" value="" style="group" vertex="1" connectable="0" parent="1">
          <mxGeometry x="200" y="520" width="90" height="80" as="geometry" />
        </mxCell>
        <mxCell id="G3NelD-k7GDp5YI_SeNo-91" value="" style="rounded=0;whiteSpace=wrap;html=1;" vertex="1" parent="G3NelD-k7GDp5YI_SeNo-96">
          <mxGeometry width="90" height="80" as="geometry" />
        </mxCell>
        <mxCell id="G3NelD-k7GDp5YI_SeNo-92" value="" style="rounded=0;whiteSpace=wrap;html=1;strokeWidth=0.5;fillColor=none;strokeColor=#6c8ebf;" vertex="1" parent="G3NelD-k7GDp5YI_SeNo-96">
          <mxGeometry x="2.8125" y="20" width="19.6875" height="40" as="geometry" />
        </mxCell>
        <mxCell id="G3NelD-k7GDp5YI_SeNo-94" value="" style="rounded=0;whiteSpace=wrap;html=1;strokeWidth=0.5;fillColor=none;strokeColor=#d6b656;" vertex="1" parent="G3NelD-k7GDp5YI_SeNo-96">
          <mxGeometry x="47.8075" y="30" width="22.5" height="20" as="geometry" />
        </mxCell>
        <mxCell id="G3NelD-k7GDp5YI_SeNo-110" style="edgeStyle=orthogonalEdgeStyle;rounded=0;orthogonalLoop=1;jettySize=auto;html=1;entryX=1;entryY=0.5;entryDx=0;entryDy=0;entryPerimeter=0;" edge="1" parent="1" source="G3NelD-k7GDp5YI_SeNo-97" target="G3NelD-k7GDp5YI_SeNo-35">
          <mxGeometry relative="1" as="geometry">
            <Array as="points">
              <mxPoint x="300" y="425" />
              <mxPoint x="300" y="280" />
            </Array>
          </mxGeometry>
        </mxCell>
        <mxCell id="G3NelD-k7GDp5YI_SeNo-125" style="edgeStyle=orthogonalEdgeStyle;rounded=0;orthogonalLoop=1;jettySize=auto;html=1;entryX=1.003;entryY=0.517;entryDx=0;entryDy=0;entryPerimeter=0;" edge="1" parent="1" source="G3NelD-k7GDp5YI_SeNo-97" target="G3NelD-k7GDp5YI_SeNo-99">
          <mxGeometry relative="1" as="geometry" />
        </mxCell>
        <mxCell id="G3NelD-k7GDp5YI_SeNo-143" style="edgeStyle=orthogonalEdgeStyle;rounded=0;orthogonalLoop=1;jettySize=auto;html=1;" edge="1" parent="1" source="G3NelD-k7GDp5YI_SeNo-97" target="G3NelD-k7GDp5YI_SeNo-112">
          <mxGeometry relative="1" as="geometry">
            <Array as="points">
              <mxPoint x="300" y="425" />
              <mxPoint x="300" y="490" />
              <mxPoint x="760" y="490" />
              <mxPoint x="760" y="360" />
            </Array>
          </mxGeometry>
        </mxCell>
        <mxCell id="G3NelD-k7GDp5YI_SeNo-97" value="" style="shape=cube;whiteSpace=wrap;html=1;boundedLbl=1;backgroundOutline=1;darkOpacity=0;darkOpacity2=0;size=10;flipH=1;fillColor=#f5f5f5;strokeColor=#666666;fontColor=#333333;" vertex="1" parent="1">
          <mxGeometry x="202.5" y="410" width="70" height="30" as="geometry" />
        </mxCell>
        <mxCell id="G3NelD-k7GDp5YI_SeNo-98" value="x_0" style="text;html=1;strokeColor=none;fillColor=none;align=center;verticalAlign=middle;whiteSpace=wrap;rounded=0;" vertex="1" parent="1">
          <mxGeometry x="665" y="470" width="85" as="geometry" />
        </mxCell>
        <mxCell id="G3NelD-k7GDp5YI_SeNo-104" style="edgeStyle=orthogonalEdgeStyle;rounded=0;orthogonalLoop=1;jettySize=auto;html=1;" edge="1" parent="1" source="G3NelD-k7GDp5YI_SeNo-99">
          <mxGeometry relative="1" as="geometry">
            <mxPoint x="670" y="425" as="targetPoint" />
          </mxGeometry>
        </mxCell>
        <mxCell id="G3NelD-k7GDp5YI_SeNo-99" value="" style="shape=cube;whiteSpace=wrap;html=1;boundedLbl=1;backgroundOutline=1;darkOpacity=0;darkOpacity2=0;size=10;flipH=1;fillColor=#f5f5f5;strokeColor=#666666;fontColor=#333333;" vertex="1" parent="1">
          <mxGeometry x="587.5" y="410" width="70" height="30" as="geometry" />
        </mxCell>
        <mxCell id="G3NelD-k7GDp5YI_SeNo-100" value="x_t" style="text;html=1;strokeColor=none;fillColor=none;align=center;verticalAlign=middle;whiteSpace=wrap;rounded=0;" vertex="1" parent="1">
          <mxGeometry x="580" y="470" width="85" as="geometry" />
        </mxCell>
        <mxCell id="G3NelD-k7GDp5YI_SeNo-101" value="" style="shape=cube;whiteSpace=wrap;html=1;boundedLbl=1;backgroundOutline=1;darkOpacity=0;darkOpacity2=0;size=10;flipH=1;fillColor=#f8cecc;strokeColor=#b85450;" vertex="1" parent="1">
          <mxGeometry x="672.5" y="410" width="70" height="30" as="geometry" />
        </mxCell>
        <mxCell id="G3NelD-k7GDp5YI_SeNo-105" style="edgeStyle=orthogonalEdgeStyle;rounded=0;orthogonalLoop=1;jettySize=auto;html=1;exitX=0.4;exitY=0.501;exitDx=0;exitDy=0;exitPerimeter=0;" edge="1" parent="1" source="AjTzXF5Oelp-aFMQVaQH-12">
          <mxGeometry relative="1" as="geometry">
            <mxPoint x="320" y="280" as="targetPoint" />
          </mxGeometry>
        </mxCell>
        <mxCell id="G3NelD-k7GDp5YI_SeNo-112" value="" style="shape=cube;whiteSpace=wrap;html=1;boundedLbl=1;backgroundOutline=1;darkOpacity=0;darkOpacity2=0;size=10;flipH=1;fillColor=#d5e8d4;strokeColor=#82b366;" vertex="1" parent="1">
          <mxGeometry x="672.5" y="345" width="70" height="30" as="geometry" />
        </mxCell>
        <mxCell id="G3NelD-k7GDp5YI_SeNo-133" style="edgeStyle=orthogonalEdgeStyle;rounded=0;orthogonalLoop=1;jettySize=auto;html=1;" edge="1" parent="1" source="G3NelD-k7GDp5YI_SeNo-117" target="G3NelD-k7GDp5YI_SeNo-131">
          <mxGeometry relative="1" as="geometry">
            <mxPoint x="627.5" y="280" as="sourcePoint" />
          </mxGeometry>
        </mxCell>
        <mxCell id="G3NelD-k7GDp5YI_SeNo-117" value="" style="shape=cube;whiteSpace=wrap;html=1;boundedLbl=1;backgroundOutline=1;darkOpacity=0;darkOpacity2=0;size=10;flipH=1;fillColor=#ffe6cc;strokeColor=#d79b00;" vertex="1" parent="1">
          <mxGeometry x="550" y="265" width="70" height="30" as="geometry" />
        </mxCell>
        <mxCell id="G3NelD-k7GDp5YI_SeNo-140" style="edgeStyle=orthogonalEdgeStyle;rounded=0;orthogonalLoop=1;jettySize=auto;html=1;" edge="1" parent="1" source="G3NelD-k7GDp5YI_SeNo-118" target="G3NelD-k7GDp5YI_SeNo-112">
          <mxGeometry relative="1" as="geometry">
            <Array as="points">
              <mxPoint x="880" y="280" />
              <mxPoint x="880" y="410" />
              <mxPoint x="760" y="410" />
              <mxPoint x="760" y="360" />
            </Array>
          </mxGeometry>
        </mxCell>
        <mxCell id="G3NelD-k7GDp5YI_SeNo-118" value="" style="shape=cube;whiteSpace=wrap;html=1;boundedLbl=1;backgroundOutline=1;darkOpacity=0;darkOpacity2=0;size=10;flipH=1;fillColor=#dae8fc;strokeColor=#6c8ebf;" vertex="1" parent="1">
          <mxGeometry x="790" y="265" width="70" height="30" as="geometry" />
        </mxCell>
        <mxCell id="G3NelD-k7GDp5YI_SeNo-119" value="Detection" style="text;html=1;strokeColor=none;fillColor=none;align=center;verticalAlign=middle;whiteSpace=wrap;rounded=0;" vertex="1" parent="1">
          <mxGeometry x="665" y="395" width="85" as="geometry" />
        </mxCell>
        <mxCell id="G3NelD-k7GDp5YI_SeNo-121" style="edgeStyle=orthogonalEdgeStyle;rounded=0;orthogonalLoop=1;jettySize=auto;html=1;entryX=1.017;entryY=0.511;entryDx=0;entryDy=0;entryPerimeter=0;" edge="1" parent="1" source="G3NelD-k7GDp5YI_SeNo-120" target="G3NelD-k7GDp5YI_SeNo-99">
          <mxGeometry relative="1" as="geometry">
            <Array as="points">
              <mxPoint x="560" y="360" />
              <mxPoint x="560" y="425" />
            </Array>
          </mxGeometry>
        </mxCell>
        <mxCell id="G3NelD-k7GDp5YI_SeNo-134" style="edgeStyle=orthogonalEdgeStyle;rounded=0;orthogonalLoop=1;jettySize=auto;html=1;" edge="1" parent="1" source="G3NelD-k7GDp5YI_SeNo-120" target="G3NelD-k7GDp5YI_SeNo-112">
          <mxGeometry relative="1" as="geometry">
            <Array as="points">
              <mxPoint x="608" y="360" />
              <mxPoint x="608" y="330" />
              <mxPoint x="760" y="330" />
              <mxPoint x="760" y="360" />
            </Array>
          </mxGeometry>
        </mxCell>
        <mxCell id="G3NelD-k7GDp5YI_SeNo-120" value="" style="shape=cube;whiteSpace=wrap;html=1;boundedLbl=1;backgroundOutline=1;darkOpacity=0;darkOpacity2=0;size=10;flipH=1;fillColor=#dae8fc;strokeColor=#6c8ebf;" vertex="1" parent="1">
          <mxGeometry x="472.5" y="345" width="70" height="30" as="geometry" />
        </mxCell>
        <mxCell id="G3NelD-k7GDp5YI_SeNo-122" value="dx" style="text;html=1;strokeColor=none;fillColor=none;align=center;verticalAlign=middle;whiteSpace=wrap;rounded=0;" vertex="1" parent="1">
          <mxGeometry x="465" y="395" width="85" as="geometry" />
        </mxCell>
        <mxCell id="G3NelD-k7GDp5YI_SeNo-126" value="+" style="ellipse;whiteSpace=wrap;html=1;aspect=fixed;" vertex="1" parent="1">
          <mxGeometry x="550" y="415" width="20" height="20" as="geometry" />
        </mxCell>
        <mxCell id="G3NelD-k7GDp5YI_SeNo-128" style="edgeStyle=orthogonalEdgeStyle;rounded=0;orthogonalLoop=1;jettySize=auto;html=1;exitX=0.133;exitY=0.5;exitDx=0;exitDy=0;exitPerimeter=0;" edge="1" parent="1" source="G3NelD-k7GDp5YI_SeNo-35" target="G3NelD-k7GDp5YI_SeNo-120">
          <mxGeometry relative="1" as="geometry">
            <mxPoint x="530" y="330" as="targetPoint" />
            <Array as="points">
              <mxPoint x="508" y="280" />
            </Array>
          </mxGeometry>
        </mxCell>
        <mxCell id="G3NelD-k7GDp5YI_SeNo-129" style="edgeStyle=orthogonalEdgeStyle;rounded=0;orthogonalLoop=1;jettySize=auto;html=1;exitX=0.133;exitY=0.5;exitDx=0;exitDy=0;exitPerimeter=0;entryX=1.033;entryY=0.513;entryDx=0;entryDy=0;entryPerimeter=0;" edge="1" parent="1" source="G3NelD-k7GDp5YI_SeNo-35" target="G3NelD-k7GDp5YI_SeNo-117">
          <mxGeometry relative="1" as="geometry">
            <mxPoint x="525" y="280" as="targetPoint" />
            <Array as="points">
              <mxPoint x="525" y="280" />
            </Array>
          </mxGeometry>
        </mxCell>
        <mxCell id="G3NelD-k7GDp5YI_SeNo-130" value="RoI_feature" style="text;html=1;strokeColor=none;fillColor=none;align=center;verticalAlign=middle;whiteSpace=wrap;rounded=0;" vertex="1" parent="1">
          <mxGeometry x="542.5" y="310" width="85" as="geometry" />
        </mxCell>
        <mxCell id="G3NelD-k7GDp5YI_SeNo-138" style="edgeStyle=orthogonalEdgeStyle;rounded=0;orthogonalLoop=1;jettySize=auto;html=1;" edge="1" parent="1" source="G3NelD-k7GDp5YI_SeNo-131" target="G3NelD-k7GDp5YI_SeNo-118">
          <mxGeometry relative="1" as="geometry" />
        </mxCell>
        <mxCell id="G3NelD-k7GDp5YI_SeNo-139" style="edgeStyle=orthogonalEdgeStyle;rounded=0;orthogonalLoop=1;jettySize=auto;html=1;" edge="1" parent="1" source="G3NelD-k7GDp5YI_SeNo-131" target="G3NelD-k7GDp5YI_SeNo-136">
          <mxGeometry relative="1" as="geometry">
            <Array as="points">
              <mxPoint x="770" y="280" />
              <mxPoint x="770" y="352" />
            </Array>
          </mxGeometry>
        </mxCell>
        <mxCell id="G3NelD-k7GDp5YI_SeNo-131" value="" style="shape=cube;whiteSpace=wrap;html=1;boundedLbl=1;backgroundOutline=1;darkOpacity=0;darkOpacity2=0;size=10;flipH=1;fillColor=#ffe6cc;strokeColor=#d79b00;" vertex="1" parent="1">
          <mxGeometry x="672.5" y="265" width="70" height="30" as="geometry" />
        </mxCell>
        <mxCell id="G3NelD-k7GDp5YI_SeNo-132" value="Dynamic_Head" style="text;html=1;strokeColor=none;fillColor=none;align=center;verticalAlign=middle;whiteSpace=wrap;rounded=0;" vertex="1" parent="1">
          <mxGeometry x="665" y="310" width="85" as="geometry" />
        </mxCell>
        <mxCell id="G3NelD-k7GDp5YI_SeNo-135" value="Offset" style="text;html=1;strokeColor=none;fillColor=none;align=center;verticalAlign=middle;whiteSpace=wrap;rounded=0;" vertex="1" parent="1">
          <mxGeometry x="782.5" y="310" width="85" as="geometry" />
        </mxCell>
        <mxCell id="G3NelD-k7GDp5YI_SeNo-141" style="edgeStyle=orthogonalEdgeStyle;rounded=0;orthogonalLoop=1;jettySize=auto;html=1;" edge="1" parent="1" source="G3NelD-k7GDp5YI_SeNo-136" target="G3NelD-k7GDp5YI_SeNo-112">
          <mxGeometry relative="1" as="geometry">
            <Array as="points">
              <mxPoint x="880" y="352" />
              <mxPoint x="880" y="410" />
              <mxPoint x="760" y="410" />
              <mxPoint x="760" y="360" />
            </Array>
          </mxGeometry>
        </mxCell>
        <mxCell id="G3NelD-k7GDp5YI_SeNo-136" value="" style="shape=cube;whiteSpace=wrap;html=1;boundedLbl=1;backgroundOutline=1;darkOpacity=0;darkOpacity2=0;size=10;flipH=1;fillColor=#dae8fc;strokeColor=#6c8ebf;" vertex="1" parent="1">
          <mxGeometry x="790" y="337.5" width="70" height="30" as="geometry" />
        </mxCell>
        <mxCell id="G3NelD-k7GDp5YI_SeNo-137" value="Class" style="text;html=1;strokeColor=none;fillColor=none;align=center;verticalAlign=middle;whiteSpace=wrap;rounded=0;" vertex="1" parent="1">
          <mxGeometry x="782.5" y="382.5" width="85" as="geometry" />
        </mxCell>
        <mxCell id="G3NelD-k7GDp5YI_SeNo-142" value="+" style="ellipse;whiteSpace=wrap;html=1;aspect=fixed;" vertex="1" parent="1">
          <mxGeometry x="750" y="350" width="20" height="20" as="geometry" />
        </mxCell>
      </root>
    </mxGraphModel>
  </diagram>
</mxfile>
